<?xml version="1.0" standalone="no"?>
<!DOCTYPE svg PUBLIC "-//W3C//DTD SVG 20010904//EN"
 "http://www.w3.org/TR/2001/REC-SVG-20010904/DTD/svg10.dtd">
<svg version="1.0" xmlns="http://www.w3.org/2000/svg"
 width="200.000000pt" height="200.000000pt" viewBox="0 0 200.000000 200.000000"
 preserveAspectRatio="xMidYMid meet">
<metadata>
Created by potrace 1.11, written by Peter Selinger 2001-2013
</metadata>
<g transform="translate(0.000000,200.000000) scale(0.100000,-0.100000)"
fill="#000000" stroke="none">
<path d="M964 1771 c-49 -12 -134 -63 -160 -94 -41 -49 -73 -122 -80 -181 l-7
-56 -91 0 c-81 0 -95 -3 -129 -25 -43 -30 -48 -63 -17 -110 11 -16 20 -42 20
-57 0 -27 -1 -27 -77 -30 l-78 -3 -72 -135 c-40 -74 -73 -138 -73 -142 0 -4
36 -30 80 -59 l80 -51 0 -99 0 -99 70 -46 70 -45 0 -59 0 -58 66 -61 c62 -56
71 -61 113 -61 25 0 95 -11 156 -25 60 -14 113 -25 117 -25 5 0 27 37 49 83
l42 83 83 -22 c65 -17 113 -40 209 -99 140 -86 117 -85 238 -8 37 23 67 47 67
52 0 5 -23 34 -51 65 -32 35 -48 60 -43 68 4 7 51 69 104 138 53 69 100 131
104 138 6 10 -8 31 -43 66 -47 48 -52 57 -70 139 l-19 88 66 32 67 32 24 74
23 74 -21 44 c-11 24 -24 43 -28 43 -5 0 -53 -9 -108 -20 l-100 -19 -70 69
c-42 42 -79 70 -91 70 -18 0 -22 8 -28 57 -8 66 -56 163 -99 199 -78 65 -205
98 -293 75z m164 -178 c51 -38 67 -70 67 -133 0 -44 -5 -66 -21 -86 -32 -44
-68 -66 -116 -71 -58 -7 -108 15 -144 63 -24 31 -29 47 -29 94 0 46 5 63 27
92 15 19 42 42 60 52 42 21 120 16 156 -11z m-394 -225 c9 -49 60 -152 113
-227 71 -103 174 -221 192 -221 20 0 99 88 177 197 62 85 120 198 130 250 4
21 12 33 22 33 9 0 49 -32 89 -72 l73 -72 72 13 c40 7 87 15 105 18 29 5 33 2
39 -22 4 -17 0 -48 -9 -79 -16 -50 -20 -53 -87 -86 -81 -39 -79 -33 -50 -165
18 -82 24 -94 64 -134 l45 -44 -110 -143 c-60 -78 -109 -149 -109 -156 0 -8
20 -34 45 -58 25 -24 45 -47 45 -51 0 -4 -27 -24 -60 -44 l-61 -37 -115 72
c-95 59 -133 77 -208 96 -50 13 -98 24 -107 24 -11 0 -29 -28 -53 -80 -20 -44
-42 -80 -49 -80 -6 0 -50 9 -97 20 -47 11 -105 20 -131 20 -40 0 -51 6 -102
51 l-57 51 0 61 0 62 -70 44 -70 44 0 101 0 101 -75 47 -74 47 45 83 c25 46
52 98 61 116 l17 32 83 0 83 0 0 58 c0 41 -6 64 -20 82 -43 55 -9 79 116 79
l92 1 6 -32z"/>
<path d="M662 857 c-30 -32 -29 -81 3 -112 72 -73 178 28 114 109 -27 35 -86
36 -117 3z m98 -17 c11 -11 20 -29 20 -40 0 -11 -9 -29 -20 -40 -11 -11 -29
-20 -40 -20 -11 0 -29 9 -40 20 -11 11 -20 29 -20 40 0 11 9 29 20 40 11 11
29 20 40 20 11 0 29 -9 40 -20z"/>
</g>
</svg>
